<?xml version="1.0" encoding="UTF-8"?><svg id="Layer_2" xmlns="http://www.w3.org/2000/svg" xmlns:xlink="http://www.w3.org/1999/xlink" viewBox="0 0 1413.02 1472.96"><defs><style>.cls-1{fill:#fff;stroke-width:0px;}</style><symbol id="stars_pixel" viewBox="0 0 2 2"><rect class="cls-1" width="2" height="2"/></symbol></defs><g id="Layer_1-2"><use width="2" height="2" transform="translate(317.11 303.81) scale(.56)" xlink:href="#stars_pixel"/><use width="2" height="2" transform="translate(374.11 275.29) scale(.57)" xlink:href="#stars_pixel"/><use width="2" height="2" transform="translate(539.3 321.51) scale(1.22)" xlink:href="#stars_pixel"/><use width="2" height="2" transform="translate(586.97 479.76) scale(.49)" xlink:href="#stars_pixel"/><use width="2" height="2" transform="translate(430.92 553.24) scale(.68)" xlink:href="#stars_pixel"/><use width="2" height="2" transform="translate(323.52 569.83) scale(.78)" xlink:href="#stars_pixel"/><use width="2" height="2" transform="translate(164.7 429.42) scale(.58)" xlink:href="#stars_pixel"/><use width="2" height="2" transform="translate(157.91 241.68) scale(.67)" xlink:href="#stars_pixel"/><use width="2" height="2" transform="translate(203.36 153.07) scale(.45)" xlink:href="#stars_pixel"/><use width="2" height="2" transform="translate(391.47 150.2) scale(1.63)" xlink:href="#stars_pixel"/><use width="2" height="2" transform="translate(558.21 157.74) scale(.76)" xlink:href="#stars_pixel"/><use width="2" height="2" transform="translate(185.13 27.63) scale(.29)" xlink:href="#stars_pixel"/><use width="2" height="2" transform="translate(432.71 17.14) scale(.63)" xlink:href="#stars_pixel"/><use width="2" height="2" transform="translate(680.3 26.87) scale(.96)" xlink:href="#stars_pixel"/><use width="2" height="2" transform="translate(854.18 75.16) scale(1.27)" xlink:href="#stars_pixel"/><use width="2" height="2" transform="translate(1004.71 120.23) scale(1.47)" xlink:href="#stars_pixel"/><use width="2" height="2" transform="translate(1124.66 285.41) scale(.52)" xlink:href="#stars_pixel"/><use width="2" height="2" transform="translate(1199.46 482.53) scale(1.16)" xlink:href="#stars_pixel"/><use width="2" height="2" transform="translate(1187.15 620.78) scale(.2)" xlink:href="#stars_pixel"/><use width="2" height="2" transform="translate(1116.2 757.71) scale(.68)" xlink:href="#stars_pixel"/><use width="2" height="2" transform="translate(1135.64 877.63) scale(1.38)" xlink:href="#stars_pixel"/><use width="2" height="2" transform="translate(1013.05 967.76) scale(1.64)" xlink:href="#stars_pixel"/><use width="2" height="2" transform="translate(404.46 911.74) scale(.67)" xlink:href="#stars_pixel"/><use width="2" height="2" transform="translate(385.02 918.08) scale(1.19)" xlink:href="#stars_pixel"/><use width="2" height="2" transform="translate(387.04 1035.59) scale(.95)" xlink:href="#stars_pixel"/><use width="2" height="2" transform="translate(486.05 1179.6) scale(.98)" xlink:href="#stars_pixel"/><use width="2" height="2" transform="translate(882.04 743.07) scale(.26)" xlink:href="#stars_pixel"/><use width="2" height="2" transform="translate(942.94 477.24) scale(1.34)" xlink:href="#stars_pixel"/><use width="2" height="2" transform="translate(700.76 248.36) scale(.63)" xlink:href="#stars_pixel"/><use width="2" height="2" transform="translate(615.66 195.08) scale(.31)" xlink:href="#stars_pixel"/><use width="2" height="2" transform="translate(549.42 790.63) scale(1.24)" xlink:href="#stars_pixel"/><use width="2" height="2" transform="translate(667.48 831.61) scale(.47)" xlink:href="#stars_pixel"/><use width="2" height="2" transform="translate(1001.83 1022.18) scale(1.09)" xlink:href="#stars_pixel"/><use width="2" height="2" transform="translate(1122.96 1304.01) scale(.57)" xlink:href="#stars_pixel"/><use width="2" height="2" transform="translate(1049.4 1414.65) scale(.48)" xlink:href="#stars_pixel"/><use width="2" height="2" transform="translate(951.89 1424.35) scale(.82)" xlink:href="#stars_pixel"/><use width="2" height="2" transform="translate(821.1 1414.12) scale(.98)" xlink:href="#stars_pixel"/><use width="2" height="2" transform="translate(740.46 1413.97) scale(1.13)" xlink:href="#stars_pixel"/><use width="2" height="2" transform="translate(593.25 1410.76) scale(.98)" xlink:href="#stars_pixel"/><use width="2" height="2" transform="translate(455.98 1430.9) scale(.91)" xlink:href="#stars_pixel"/><use width="2" height="2" transform="translate(368.85 1471.15) scale(.9)" xlink:href="#stars_pixel"/><use width="2" height="2" transform="translate(231.94 1404.44) scale(.56)" xlink:href="#stars_pixel"/><use width="2" height="2" transform="translate(83 1115.28) scale(1.69)" xlink:href="#stars_pixel"/><use width="2" height="2" transform="translate(54.38 925.48) scale(.32)" xlink:href="#stars_pixel"/><use width="2" height="2" transform="translate(57.57 788.03) scale(.48)" xlink:href="#stars_pixel"/><use width="2" height="2" transform="translate(70.67 677.16) scale(.79)" xlink:href="#stars_pixel"/><use width="2" height="2" transform="translate(20.26 559.74) scale(.94)" xlink:href="#stars_pixel"/><use width="2" height="2" transform="translate(7.01 432.55) scale(.79)" xlink:href="#stars_pixel"/><use width="2" height="2" transform="translate(70.74 291.91) scale(.71)" xlink:href="#stars_pixel"/><use width="2" height="2" transform="translate(789.03 417.12) scale(2.81)" xlink:href="#stars_pixel"/><use width="2" height="2" transform="translate(556.88 426.22) scale(.39)" xlink:href="#stars_pixel"/><use width="2" height="2" transform="translate(341.78 613.33) scale(1.03)" xlink:href="#stars_pixel"/><use width="2" height="2" transform="translate(388.86 841.14) scale(.85)" xlink:href="#stars_pixel"/><use width="2" height="2" transform="translate(476.36 895.09) scale(.67)" xlink:href="#stars_pixel"/><use width="2" height="2" transform="translate(416.06 1039.18) scale(.74)" xlink:href="#stars_pixel"/><use width="2" height="2" transform="translate(103.69 1094.93) scale(1.53)" xlink:href="#stars_pixel"/><use width="2" height="2" transform="translate(114.08 1229.77) scale(1.03)" xlink:href="#stars_pixel"/><use width="2" height="2" transform="translate(144.43 1406.63) scale(.87)" xlink:href="#stars_pixel"/><use width="2" height="2" transform="translate(144.5 1411.84) scale(.81)" xlink:href="#stars_pixel"/><use width="2" height="2" transform="translate(17.42 1387.4) scale(.64)" xlink:href="#stars_pixel"/><use width="2" height="2" transform="translate(0 1404.01) scale(1.05)" xlink:href="#stars_pixel"/><use width="2" height="2" transform="translate(857.95 1183.04) scale(.9)" xlink:href="#stars_pixel"/><use width="2" height="2" transform="translate(1102.58 1186.4) scale(.87)" xlink:href="#stars_pixel"/><use width="2" height="2" transform="translate(1223.06 1286.78)" xlink:href="#stars_pixel"/><use width="2" height="2" transform="translate(1263.92 1317.62) scale(.4)" xlink:href="#stars_pixel"/><use width="2" height="2" transform="translate(1343.63 1326.93) scale(1.11)" xlink:href="#stars_pixel"/><use width="2" height="2" transform="translate(1410.62 1253.04) scale(1.2)" xlink:href="#stars_pixel"/><use width="2" height="2" transform="translate(1377.55 1152.95) scale(.74)" xlink:href="#stars_pixel"/><use width="2" height="2" transform="translate(1293.21 1031.85) scale(1.3)" xlink:href="#stars_pixel"/><use width="2" height="2" transform="translate(1307.33 831.5) scale(.57)" xlink:href="#stars_pixel"/><use width="2" height="2" transform="translate(1180 647.31) scale(.61)" xlink:href="#stars_pixel"/><use width="2" height="2" transform="translate(1050.67 554.87) scale(2.53)" xlink:href="#stars_pixel"/><use width="2" height="2" transform="translate(1279.89 275.11) scale(1.05)" xlink:href="#stars_pixel"/><use width="2" height="2" transform="translate(1293.57 254.77) scale(.97)" xlink:href="#stars_pixel"/><use width="2" height="2" transform="translate(1320.05 214.21) scale(1.32)" xlink:href="#stars_pixel"/><use width="2" height="2" transform="translate(1363.69 154.14) scale(1.17)" xlink:href="#stars_pixel"/><use width="2" height="2" transform="translate(1384.29 130.77) scale(.88)" xlink:href="#stars_pixel"/><use width="2" height="2" transform="translate(1387.38 33.57)" xlink:href="#stars_pixel"/><use width="2" height="2" transform="translate(1340.31) scale(.98)" xlink:href="#stars_pixel"/><use width="2" height="2" transform="translate(1139.54 6.89) scale(.8)" xlink:href="#stars_pixel"/><use width="2" height="2" transform="translate(1068.83 30.09) scale(1.06)" xlink:href="#stars_pixel"/><use width="2" height="2" transform="translate(1082.54 147.73) scale(.83)" xlink:href="#stars_pixel"/><use width="2" height="2" transform="translate(1233.84 402.83) scale(.29)" xlink:href="#stars_pixel"/><use width="2" height="2" transform="translate(1275.82 454.8) scale(2.07)" xlink:href="#stars_pixel"/><use width="2" height="2" transform="translate(1370.73 663.64) scale(.93)" xlink:href="#stars_pixel"/><use width="2" height="2" transform="translate(1387.27 837.6) scale(1.17)" xlink:href="#stars_pixel"/><use width="2" height="2" transform="translate(1340.77 918.55) scale(.7)" xlink:href="#stars_pixel"/><use width="2" height="2" transform="translate(586.4 609.85) scale(1.13)" xlink:href="#stars_pixel"/><use width="2" height="2" transform="translate(502.72 579.83) scale(.95)" xlink:href="#stars_pixel"/><use width="2" height="2" transform="translate(908.31 982.19) scale(.7)" xlink:href="#stars_pixel"/><use width="2" height="2" transform="translate(703.73 904.8) scale(1.07)" xlink:href="#stars_pixel"/><use width="2" height="2" transform="translate(687.58 479.94) scale(.37)" xlink:href="#stars_pixel"/></g></svg>